<svg width="28" height="20" xmlns="http://www.w3.org/2000/svg">
    <title>Path</title>
    <g id="Section-/-Nav-/-Footer-/-Architects" transform="translate(-148 -447)">
    <path d="M163.004 447.649c1.796 0 3.38 1.027 4.226 2.54.74-.324 1.532-.54 2.378-.54 3.275 0 5.917 2.702 5.917 6.054 0 3.351-2.642 6.054-5.917 6.054a7.74 7.74 0 0 1-1.163-.108 4.34 4.34 0 0 1-3.803 2.27c-.687 0-1.321-.162-1.902-.433a4.897 4.897 0 0 1-4.544 3.028 4.94 4.94 0 0 1-4.649-3.298c-.317.054-.634.108-.95.108-2.537 0-4.597-2.108-4.597-4.702 0-1.73.898-3.244 2.272-4.054a5.829 5.829 0 0 1-.423-2.163c0-2.973 2.377-5.405 5.336-5.405 1.849.054 3.381.865 4.332 2.162.898-.919 2.113-1.513 3.487-1.513Z" id="Path" fill="#00A1E0"/>
    </g>
</svg>